<svg width="31" height="31" viewBox="0 0 31 31" fill="none" xmlns="http://www.w3.org/2000/svg">
<path d="M24.6268 8.11969C25.9143 9.48719 26.6055 11.0209 26.6055 13.5072C26.6055 17.8822 23.5343 21.8034 19.068 23.7422L17.9518 22.0197C22.1205 19.7647 22.9355 16.8384 23.2605 14.9934C22.5893 15.3409 21.7105 15.4622 20.8493 15.3822C18.5943 15.1734 16.8168 13.3222 16.8168 11.0209C16.8168 9.86062 17.2777 8.74782 18.0982 7.92735C18.9187 7.10687 20.0315 6.64594 21.1918 6.64594C22.533 6.64594 23.8155 7.25844 24.6268 8.11969ZM12.1268 8.11969C13.4143 9.48719 14.1055 11.0209 14.1055 13.5072C14.1055 17.8822 11.0343 21.8034 6.56803 23.7422L5.45178 22.0197C9.62053 19.7647 10.4355 16.8384 10.7605 14.9934C10.0893 15.3409 9.21053 15.4622 8.34928 15.3822C6.09428 15.1734 4.31678 13.3222 4.31678 11.0209C4.31678 9.86062 4.77771 8.74782 5.59819 7.92735C6.41866 7.10687 7.53146 6.64594 8.69178 6.64594C10.033 6.64594 11.3155 7.25844 12.1268 8.11969Z" fill="#381DDB"/>
</svg>
