<svg width="38" height="38" viewBox="0 0 38 38" fill="none" xmlns="http://www.w3.org/2000/svg">
<path d="M19.1 37.425C8.95146 37.425 0.724976 29.1985 0.724976 19.05C0.724976 8.90148 8.95146 0.674995 19.1 0.674995C29.2485 0.674995 37.475 8.90148 37.475 19.05C37.475 29.1985 29.2485 37.425 19.1 37.425ZM19.1 33.75C22.9987 33.75 26.7377 32.2013 29.4944 29.4445C32.2512 26.6877 33.8 22.9487 33.8 19.05C33.8 15.1513 32.2512 11.4123 29.4944 8.65553C26.7377 5.89874 22.9987 4.35 19.1 4.35C15.2013 4.35 11.4623 5.89874 8.70551 8.65553C5.94872 11.4123 4.39998 15.1513 4.39998 19.05C4.39998 22.9487 5.94872 26.6877 8.70551 29.4445C11.4623 32.2013 15.2013 33.75 19.1 33.75V33.75ZM16.5679 12.4626L25.5331 18.4381C25.6339 18.5052 25.7166 18.5962 25.7737 18.7029C25.8309 18.8097 25.8609 18.9289 25.8609 19.05C25.8609 19.1711 25.8309 19.2903 25.7737 19.3971C25.7166 19.5038 25.6339 19.5948 25.5331 19.6619L16.5661 25.6374C16.4555 25.7107 16.3272 25.7527 16.1947 25.759C16.0621 25.7652 15.9304 25.7355 15.8134 25.673C15.6965 25.6104 15.5986 25.5174 15.5302 25.4037C15.4618 25.2901 15.4254 25.16 15.425 25.0274V13.0726C15.4252 12.9397 15.4615 12.8093 15.53 12.6953C15.5985 12.5814 15.6966 12.4882 15.8139 12.4256C15.9312 12.363 16.0632 12.3333 16.196 12.3399C16.3288 12.3464 16.4573 12.3888 16.5679 12.4626V12.4626Z" fill="white"/>
</svg>
