<svg width="23" height="18" viewBox="0 0 23 18" fill="none" xmlns="http://www.w3.org/2000/svg">
<path d="M2.29552 16.2685C1.00802 14.901 0.316772 13.3672 0.316772 10.881C0.316772 6.506 3.38802 2.58475 7.85427 0.645996L8.97052 2.3685C4.80177 4.6235 3.98677 7.54975 3.66177 9.39475C4.33302 9.04725 5.21177 8.926 6.07302 9.006C8.32802 9.21475 10.1055 11.066 10.1055 13.3672C10.1055 14.5276 9.64459 15.6404 8.82411 16.4608C8.00364 17.2813 6.89084 17.7422 5.73052 17.7422C4.38927 17.7422 3.10677 17.1297 2.29552 16.2685V16.2685ZM14.7955 16.2685C13.508 14.901 12.8168 13.3672 12.8168 10.881C12.8168 6.506 15.888 2.58475 20.3543 0.645996L21.4705 2.3685C17.3018 4.6235 16.4868 7.54975 16.1618 9.39475C16.833 9.04725 17.7118 8.926 18.573 9.006C20.828 9.21475 22.6055 11.066 22.6055 13.3672C22.6055 14.5276 22.1446 15.6404 21.3241 16.4608C20.5036 17.2813 19.3908 17.7422 18.2305 17.7422C16.8893 17.7422 15.6068 17.1297 14.7955 16.2685V16.2685Z" fill="#381DDB"/>
</svg>
