<svg width="72" height="62" viewBox="0 0 72 62" fill="none" xmlns="http://www.w3.org/2000/svg">
<path fill-rule="evenodd" clip-rule="evenodd" d="M23.9595 8.85714V0C15.9324 1.99486 9.93245 6.50318 5.95946 13.5251C1.98647 20.547 0 30.0823 0 42.1313V62H27V35.4286H15.4459V32.6757C15.4459 26.2123 16.1554 21.0058 17.5743 17.056C18.9932 13.1062 21.1216 10.3732 23.9595 8.85714ZM68.9595 8.85714V0C60.9324 1.99486 54.9325 6.50318 50.9595 13.5251C46.9865 20.547 45 30.0823 45 42.1313V62H72V35.4286H60.4459V32.6757C60.4459 26.2123 61.1554 21.0058 62.5743 17.056C63.9932 13.1062 66.1216 10.3732 68.9595 8.85714Z" fill="#5F269E"/>
</svg>
