<svg id="Layer_1" data-name="Layer 1" xmlns="http://www.w3.org/2000/svg" viewBox="0 0 48 48"><title>7. Refund</title><path d="M24,38.23A14.23,14.23,0,1,1,38.23,24,14.24,14.24,0,0,1,24,38.23Zm0-26.46A12.23,12.23,0,1,0,36.23,24,12.25,12.25,0,0,0,24,11.77Z"/><path d="M24,25c-3.64,0-6.49-2.07-6.49-4.72s2.85-4.71,6.49-4.71c3.32,0,6.09,1.8,6.45,4.19a1,1,0,0,1-.84,1.13,1,1,0,0,1-1.14-.84c-.2-1.37-2.21-2.48-4.47-2.48-2.43,0-4.49,1.24-4.49,2.71S21.57,23,24,23a1,1,0,0,1,0,2Z"/><path d="M24,32.43c-3.32,0-6.09-1.8-6.45-4.19a1,1,0,0,1,.84-1.13,1,1,0,0,1,1.14.84c.2,1.37,2.21,2.48,4.47,2.48,2.43,0,4.49-1.24,4.49-2.71S26.43,25,24,25a1,1,0,0,1,0-2c3.64,0,6.49,2.07,6.49,4.72S27.64,32.43,24,32.43Z"/><path d="M24,35.33a1,1,0,0,1-1-1V13.67a1,1,0,0,1,2,0V34.33A1,1,0,0,1,24,35.33Z"/><path d="M24,44.05a20.07,20.07,0,0,1-5.5-.77,1,1,0,1,1,.55-1.92A18.05,18.05,0,0,0,35.23,9.87a1,1,0,0,1-.16-1.41,1,1,0,0,1,1.4-.16A20,20,0,0,1,24,44.05Z"/><path d="M21.11,46.36a1,1,0,0,1-.8-.39l-2.33-3a1,1,0,0,1-.2-.74,1,1,0,0,1,.39-.66l3.09-2.37a1,1,0,1,1,1.21,1.59l-2.29,1.76,1.72,2.25a1,1,0,0,1-.79,1.6Z"/><path d="M12.15,39.92a1,1,0,0,1-.62-.22,20,20,0,0,1,18-35A1,1,0,0,1,30.19,6,1,1,0,0,1,29,6.64,18.05,18.05,0,0,0,12.77,38.13a1,1,0,0,1,.16,1.41A1,1,0,0,1,12.15,39.92Z"/><path d="M26.14,9.05a1,1,0,0,1-.8-.39,1,1,0,0,1,.19-1.41l2.29-1.76L26.1,3.24a1,1,0,0,1,.18-1.4A1,1,0,0,1,27.69,2l2.33,3a1,1,0,0,1,.2.74,1,1,0,0,1-.39.66L26.74,8.84A1,1,0,0,1,26.14,9.05Z"/></svg>