<svg width="26" height="25" viewBox="0 0 26 25" fill="none" xmlns="http://www.w3.org/2000/svg">
<path d="M19.9695 15.8582C20.169 15.3932 19.9434 14.8483 19.4082 14.5026C19.2549 14.4036 19.0865 14.3285 18.9072 14.2792C18.7409 14.2336 18.5095 14.207 18.268 14.2042C18.4414 13.6689 18.2083 13.0922 17.6647 12.7411C17.5036 12.6371 17.3219 12.557 17.1246 12.5027C16.7227 12.3926 16.3027 12.4057 15.9303 12.5171C15.9187 12.1063 15.6848 11.7081 15.2708 11.4407C15.1099 11.3368 14.928 11.2566 14.7307 11.2022C14.3104 11.087 13.8341 11.0716 13.4011 11.1752L14.8875 7.70462C15.1747 7.03483 15.0127 6.4198 14.4543 6.05914C14.3066 5.96375 14.1332 5.8883 13.9392 5.83526C12.9984 5.57723 12.0564 5.99579 11.6984 6.83114L8.24632 14.9495L7.36106 13.4097C7.22538 13.1877 7.03621 12.9977 6.79928 12.8447C6.17832 12.4436 5.31117 12.3672 4.58948 12.6499C4.0897 12.8456 3.71478 13.1847 3.53365 13.605C3.35188 14.0258 3.38648 14.4779 3.62231 14.8625C3.63 14.8768 4.40367 16.3375 5.57837 18.2566L5.76868 18.5689C6.51825 19.8027 7.2264 20.9679 8.54848 21.8219L8.54868 21.822C9.17813 22.2286 9.90369 22.5412 10.7666 22.7779C13.7981 23.6091 15.3341 22.6698 16.6473 21.6368C17.9106 20.643 19.8863 16.0531 19.9695 15.8582ZM16.1134 21.2025C14.8771 22.1751 13.6398 22.9215 11.0135 22.2016C10.2361 21.9882 9.58623 21.7092 9.02707 21.348L9.02687 21.3479C7.83708 20.5794 7.19593 19.5242 6.45358 18.3026L6.26233 17.9886C5.09772 16.0857 4.33154 14.6393 4.31498 14.6098C4.16033 14.3565 4.13844 14.0702 4.2534 13.8035C4.36868 13.5364 4.60704 13.3209 4.92451 13.1966C5.38843 13.0149 5.92375 13.0616 6.3212 13.3184C6.47106 13.4152 6.59091 13.5359 6.6731 13.6706L7.9536 15.8975C8.01868 16.0108 8.16302 16.0811 8.31913 16.0744C8.47472 16.0679 8.60984 15.9864 8.6598 15.8684L12.4188 7.02798C12.5898 6.6294 13.0258 6.22871 13.6924 6.41138C13.8025 6.44155 13.8981 6.48263 13.9762 6.53313C14.275 6.72609 14.3462 7.09016 14.1678 7.50743L11.8644 12.8847C11.7963 13.044 11.9027 13.2174 12.101 13.2714C12.3 13.326 12.5167 13.2411 12.5845 13.0819L12.9136 12.3137C13.1852 11.6797 14.0016 11.6463 14.4839 11.7786C14.5969 11.8095 14.7008 11.8553 14.7926 11.9146C15.1235 12.1283 15.2534 12.4882 15.1154 12.8101L14.6665 13.8573L14.6628 13.8664C14.5947 14.0257 14.7012 14.1991 14.8995 14.2531C15.0984 14.3074 15.3148 14.2229 15.3828 14.0638L15.5938 13.5715C15.7804 13.1566 16.356 12.9356 16.8776 13.0786C16.9905 13.1096 17.0944 13.1553 17.1865 13.2147C17.5172 13.4283 17.6467 13.7883 17.5089 14.1103L16.9814 15.3414L16.9739 15.3582C16.9058 15.5171 17.011 15.6902 17.2108 15.7449C17.4095 15.7994 17.6263 15.7146 17.6942 15.5554L18.0082 14.8223C18.1761 14.8055 18.4909 14.8084 18.6602 14.8549C18.755 14.8809 18.8457 14.9215 18.9298 14.9759C19.2126 15.1585 19.3439 15.4398 19.2495 15.6603C18.6969 16.9508 17.0567 20.4604 16.1134 21.2025Z" fill="white"/>
<path d="M17.1572 2.36494C12.7006 1.54437 8.04227 1.66577 3.64555 2.72854C3.38545 2.79127 3.04718 2.66581 2.9675 2.47315C2.88807 2.28029 3.07915 2.01678 3.35195 1.95121C7.91843 0.847436 12.7564 0.721569 17.3848 1.57361C17.4704 1.2768 17.5556 0.980002 17.6409 0.6832C17.6757 0.563424 17.7396 0.460903 17.9157 0.445677C18.0916 0.430654 18.1992 0.478768 18.2961 0.588191C18.7478 1.09815 19.1658 1.61665 19.5492 2.14102C19.6614 2.29491 19.585 2.47782 19.3853 2.55131C18.7031 2.80304 18.0469 3.07589 17.4183 3.36762C17.2836 3.43014 17.1773 3.43603 17.0496 3.36335C16.9222 3.29067 16.9237 3.17739 16.9583 3.05741C17.0242 2.82639 17.0907 2.59577 17.1572 2.36494Z" fill="white"/>
</svg>
