<svg width="72" height="62" viewBox="0 0 72 62" fill="none" xmlns="http://www.w3.org/2000/svg">
<path fill-rule="evenodd" clip-rule="evenodd" d="M48.0405 53.1429V62C56.0676 60.0051 62.0675 55.4968 66.0405 48.4749C70.0135 41.453 72 31.9177 72 19.8687L72 0H45L45 26.5714H56.5541V29.3243C56.5541 35.7877 55.8446 40.9942 54.4257 44.944C53.0068 48.8938 50.8784 51.6268 48.0405 53.1429ZM3.04054 53.1429L3.04054 62C11.0676 60.0051 17.0675 55.4968 21.0405 48.4749C25.0135 41.453 27 31.9177 27 19.8687V0H0L0 26.5714H11.5541V29.3243C11.5541 35.7877 10.8446 40.9942 9.42567 44.944C8.00675 48.8938 5.87839 51.6268 3.04054 53.1429Z" fill="#5F269E"/>
</svg>
