<svg width="22" height="22" viewBox="0 0 22 22" fill="none" xmlns="http://www.w3.org/2000/svg">
<path d="M11 0C8.82441 0 6.69767 0.645139 4.88873 1.85383C3.07979 3.06253 1.66989 4.78049 0.83733 6.79048C0.00476617 8.80047 -0.213071 11.0122 0.211367 13.146C0.635804 15.2798 1.68345 17.2398 3.22183 18.7782C4.76021 20.3166 6.72022 21.3642 8.85401 21.7886C10.9878 22.2131 13.1995 21.9952 15.2095 21.1627C17.2195 20.3301 18.9375 18.9202 20.1462 17.1113C21.3549 15.3023 22 13.1756 22 11C22 8.08262 20.8411 5.28473 18.7782 3.22183C16.7153 1.15893 13.9174 0 11 0ZM11 20C9.21997 20 7.47992 19.4722 5.99987 18.4832C4.51983 17.4943 3.36628 16.0887 2.68509 14.4442C2.0039 12.7996 1.82567 10.99 2.17294 9.24419C2.5202 7.49836 3.37737 5.89471 4.63604 4.63604C5.89472 3.37737 7.49836 2.5202 9.24419 2.17293C10.99 1.82567 12.7996 2.0039 14.4442 2.68508C16.0887 3.36627 17.4943 4.51983 18.4832 5.99987C19.4722 7.47991 20 9.21997 20 11C20 13.3869 19.0518 15.6761 17.364 17.364C15.6761 19.0518 13.387 20 11 20ZM11.59 6.67C12.1034 6.68311 12.6069 6.81443 13.0613 7.05377C13.5157 7.29312 13.9088 7.63403 14.21 8.05C14.3706 8.26063 14.6082 8.39893 14.8707 8.43455C15.1332 8.47017 15.3991 8.4002 15.61 8.24C15.715 8.15966 15.803 8.0593 15.8689 7.94474C15.9348 7.83017 15.9774 7.70367 15.9941 7.57255C16.0109 7.44143 16.0015 7.30829 15.9664 7.18084C15.9314 7.05338 15.8714 6.93414 15.79 6.83C15.3035 6.1709 14.6714 5.63305 13.9428 5.25838C13.2143 4.88372 12.4091 4.68236 11.59 4.67C10.4448 4.70333 9.3378 5.08896 8.41978 5.77435C7.50176 6.45973 6.81741 7.41152 6.46 8.5H5C4.73479 8.5 4.48043 8.60536 4.2929 8.79289C4.10536 8.98043 4 9.23478 4 9.5C4 9.76522 4.10536 10.0196 4.2929 10.2071C4.48043 10.3946 4.73479 10.5 5 10.5H6C6 10.67 6 10.83 6 11C6 11.17 6 11.33 6 11.5H5C4.73479 11.5 4.48043 11.6054 4.2929 11.7929C4.10536 11.9804 4 12.2348 4 12.5C4 12.7652 4.10536 13.0196 4.2929 13.2071C4.48043 13.3946 4.73479 13.5 5 13.5H6.46C6.81741 14.5885 7.50176 15.5403 8.41978 16.2257C9.3378 16.911 10.4448 17.2967 11.59 17.33C12.4091 17.3176 13.2143 17.1163 13.9428 16.7416C14.6714 16.367 15.3035 15.8291 15.79 15.17C15.8976 15.07 15.9818 14.9476 16.0367 14.8113C16.0916 14.6751 16.1158 14.5285 16.1077 14.3818C16.0995 14.2352 16.0591 14.0921 15.9894 13.9629C15.9197 13.8336 15.8223 13.7213 15.7043 13.6339C15.5863 13.5465 15.4505 13.4861 15.3065 13.4572C15.1625 13.4282 15.0139 13.4313 14.8712 13.4663C14.7286 13.5012 14.5954 13.5671 14.4811 13.6594C14.3668 13.7516 14.2743 13.8679 14.21 14C13.9088 14.416 13.5157 14.7569 13.0613 14.9962C12.6069 15.2356 12.1034 15.3669 11.59 15.38C10.9798 15.3559 10.3871 15.1688 9.87362 14.8382C9.36013 14.5076 8.94453 14.0455 8.67 13.5H11C11.2652 13.5 11.5196 13.3946 11.7071 13.2071C11.8946 13.0196 12 12.7652 12 12.5C12 12.2348 11.8946 11.9804 11.7071 11.7929C11.5196 11.6054 11.2652 11.5 11 11.5H8.05C8.02345 11.3345 8.00675 11.1675 8 11C8.00675 10.8325 8.02345 10.6655 8.05 10.5H11C11.2652 10.5 11.5196 10.3946 11.7071 10.2071C11.8946 10.0196 12 9.76522 12 9.5C12 9.23478 11.8946 8.98043 11.7071 8.79289C11.5196 8.60536 11.2652 8.5 11 8.5H8.67C8.95118 7.96381 9.36965 7.51186 9.88267 7.19035C10.3957 6.86883 10.9849 6.68927 11.59 6.67Z" fill="white"/>
</svg>
