<svg width="28" height="28" viewBox="0 0 28 28" fill="none" xmlns="http://www.w3.org/2000/svg">
<path d="M9.97417 26H17.9483M9.97417 26V19.3333M9.97417 26H2.79742C2.58593 26 2.3831 25.9157 2.23356 25.7657C2.08401 25.6157 2 25.4122 2 25.2V20.1333C2 19.9212 2.08401 19.7177 2.23356 19.5676C2.3831 19.4176 2.58593 19.3333 2.79742 19.3333H9.97417M17.9483 26V10M17.9483 26H25.1251C25.3366 26 25.5394 25.9157 25.689 25.7657C25.8385 25.6157 25.9225 25.4122 25.9225 25.2V2.8C25.9225 2.58783 25.8385 2.38434 25.689 2.23431C25.5394 2.08429 25.3366 2 25.1251 2H18.7458C18.5343 2 18.3314 2.08429 18.1819 2.23431C18.0324 2.38434 17.9483 2.58783 17.9483 2.8V10M9.97417 19.3333V10.8C9.97417 10.5878 10.0582 10.3843 10.2077 10.2343C10.3573 10.0843 10.5601 10 10.7716 10H17.9483" stroke="white" stroke-width="3"/>
</svg>
