<svg width="24" height="21" viewBox="0 0 24 21" fill="none" xmlns="http://www.w3.org/2000/svg">
<mask id="path-1-inside-1_1366_1522" fill="white">
<path d="M6 0H1.2C0.88174 0 0.576515 0.109793 0.351472 0.305225C0.126428 0.500658 0 0.765722 0 1.0421V19.8C0 20.0764 0.126428 20.3414 0.351472 20.5369C0.576515 20.7323 0.88174 20.8421 1.2 20.8421H6C6.31826 20.8421 6.62348 20.7323 6.84853 20.5369C7.07357 20.3414 7.2 20.0764 7.2 19.8V1.0421C7.2 0.765722 7.07357 0.500658 6.84853 0.305225C6.62348 0.109793 6.31826 0 6 0ZM3.6 19.8C3.12532 19.8 2.66131 19.6778 2.26663 19.4487C1.87195 19.2197 1.56434 18.8942 1.38269 18.5134C1.20104 18.1325 1.15351 17.7135 1.24612 17.3092C1.33872 16.9049 1.5673 16.5335 1.90294 16.242C2.23859 15.9505 2.66623 15.752 3.13178 15.6716C3.59734 15.5912 4.0799 15.6325 4.51844 15.7902C4.95698 15.948 5.33181 16.2151 5.59553 16.5579C5.85924 16.9006 6 17.3036 6 17.7158C6 18.2686 5.74714 18.7987 5.29706 19.1895C4.84697 19.5804 4.23652 19.8 3.6 19.8ZM6 10.421H1.2V1.0421H6V10.421ZM4.8 17.7158C4.8 17.9219 4.72962 18.1234 4.59776 18.2947C4.46591 18.4661 4.27849 18.5997 4.05922 18.6786C3.83995 18.7574 3.59867 18.7781 3.36589 18.7379C3.13311 18.6977 2.9193 18.5984 2.75147 18.4527C2.58365 18.3069 2.46936 18.1212 2.42306 17.9191C2.37676 17.7169 2.40052 17.5074 2.49134 17.317C2.58217 17.1266 2.73598 16.9638 2.93332 16.8493C3.13066 16.7348 3.36266 16.6737 3.6 16.6737C3.91826 16.6737 4.22348 16.7835 4.44853 16.9789C4.67357 17.1743 4.8 17.4394 4.8 17.7158ZM14.4 0H9.6C9.28174 0 8.97652 0.109793 8.75147 0.305225C8.52643 0.500658 8.4 0.765722 8.4 1.0421V19.8C8.4 20.0764 8.52643 20.3414 8.75147 20.5369C8.97652 20.7323 9.28174 20.8421 9.6 20.8421H14.4C14.7183 20.8421 15.0235 20.7323 15.2485 20.5369C15.4736 20.3414 15.6 20.0764 15.6 19.8V1.0421C15.6 0.765722 15.4736 0.500658 15.2485 0.305225C15.0235 0.109793 14.7183 0 14.4 0ZM12 19.8C11.5253 19.8 11.0613 19.6778 10.6666 19.4487C10.272 19.2197 9.96434 18.8942 9.78269 18.5134C9.60104 18.1325 9.55351 17.7135 9.64612 17.3092C9.73872 16.9049 9.9673 16.5335 10.3029 16.242C10.6386 15.9505 11.0662 15.752 11.5318 15.6716C11.9973 15.5912 12.4799 15.6325 12.9184 15.7902C13.357 15.948 13.7318 16.2151 13.9955 16.5579C14.2592 16.9006 14.4 17.3036 14.4 17.7158C14.4 18.2686 14.1471 18.7987 13.6971 19.1895C13.247 19.5804 12.6365 19.8 12 19.8ZM14.4 10.421H9.6V1.0421H14.4V10.421ZM13.2 17.7158C13.2 17.9219 13.1296 18.1234 12.9978 18.2947C12.8659 18.4661 12.6785 18.5997 12.4592 18.6786C12.2399 18.7574 11.9987 18.7781 11.7659 18.7379C11.5331 18.6977 11.3193 18.5984 11.1515 18.4527C10.9836 18.3069 10.8694 18.1212 10.8231 17.9191C10.7768 17.7169 10.8005 17.5074 10.8913 17.317C10.9822 17.1266 11.136 16.9638 11.3333 16.8493C11.5307 16.7348 11.7627 16.6737 12 16.6737C12.3183 16.6737 12.6235 16.7835 12.8485 16.9789C13.0736 17.1743 13.2 17.4394 13.2 17.7158ZM22.8 0H18C17.6817 0 17.3765 0.109793 17.1515 0.305225C16.9264 0.500658 16.8 0.765722 16.8 1.0421V19.8C16.8 20.0764 16.9264 20.3414 17.1515 20.5369C17.3765 20.7323 17.6817 20.8421 18 20.8421H22.8C23.1183 20.8421 23.4235 20.7323 23.6485 20.5369C23.8736 20.3414 24 20.0764 24 19.8V1.0421C24 0.765722 23.8736 0.500658 23.6485 0.305225C23.4235 0.109793 23.1183 0 22.8 0ZM20.4 19.8C19.9253 19.8 19.4613 19.6778 19.0666 19.4487C18.672 19.2197 18.3643 18.8942 18.1827 18.5134C18.001 18.1325 17.9535 17.7135 18.0461 17.3092C18.1387 16.9049 18.3673 16.5335 18.7029 16.242C19.0386 15.9505 19.4662 15.752 19.9318 15.6716C20.3973 15.5912 20.8799 15.6325 21.3184 15.7902C21.757 15.948 22.1318 16.2151 22.3955 16.5579C22.6592 16.9006 22.8 17.3036 22.8 17.7158C22.8 18.2686 22.5471 18.7987 22.0971 19.1895C21.647 19.5804 21.0365 19.8 20.4 19.8ZM22.8 10.421H18V1.0421H22.8V10.421ZM21.6 17.7158C21.6 17.9219 21.5296 18.1234 21.3978 18.2947C21.2659 18.4661 21.0785 18.5997 20.8592 18.6786C20.6399 18.7574 20.3987 18.7781 20.1659 18.7379C19.9331 18.6977 19.7193 18.5984 19.5515 18.4527C19.3836 18.3069 19.2694 18.1212 19.2231 17.9191C19.1768 17.7169 19.2005 17.5074 19.2913 17.317C19.3822 17.1266 19.536 16.9638 19.7333 16.8493C19.9307 16.7348 20.1627 16.6737 20.4 16.6737C20.7183 16.6737 21.0235 16.7835 21.2485 16.9789C21.4736 17.1743 21.6 17.4394 21.6 17.7158Z"/>
</mask>
<path d="M6 0H1.2C0.88174 0 0.576515 0.109793 0.351472 0.305225C0.126428 0.500658 0 0.765722 0 1.0421V19.8C0 20.0764 0.126428 20.3414 0.351472 20.5369C0.576515 20.7323 0.88174 20.8421 1.2 20.8421H6C6.31826 20.8421 6.62348 20.7323 6.84853 20.5369C7.07357 20.3414 7.2 20.0764 7.2 19.8V1.0421C7.2 0.765722 7.07357 0.500658 6.84853 0.305225C6.62348 0.109793 6.31826 0 6 0ZM3.6 19.8C3.12532 19.8 2.66131 19.6778 2.26663 19.4487C1.87195 19.2197 1.56434 18.8942 1.38269 18.5134C1.20104 18.1325 1.15351 17.7135 1.24612 17.3092C1.33872 16.9049 1.5673 16.5335 1.90294 16.242C2.23859 15.9505 2.66623 15.752 3.13178 15.6716C3.59734 15.5912 4.0799 15.6325 4.51844 15.7902C4.95698 15.948 5.33181 16.2151 5.59553 16.5579C5.85924 16.9006 6 17.3036 6 17.7158C6 18.2686 5.74714 18.7987 5.29706 19.1895C4.84697 19.5804 4.23652 19.8 3.6 19.8ZM6 10.421H1.2V1.0421H6V10.421ZM4.8 17.7158C4.8 17.9219 4.72962 18.1234 4.59776 18.2947C4.46591 18.4661 4.27849 18.5997 4.05922 18.6786C3.83995 18.7574 3.59867 18.7781 3.36589 18.7379C3.13311 18.6977 2.9193 18.5984 2.75147 18.4527C2.58365 18.3069 2.46936 18.1212 2.42306 17.9191C2.37676 17.7169 2.40052 17.5074 2.49134 17.317C2.58217 17.1266 2.73598 16.9638 2.93332 16.8493C3.13066 16.7348 3.36266 16.6737 3.6 16.6737C3.91826 16.6737 4.22348 16.7835 4.44853 16.9789C4.67357 17.1743 4.8 17.4394 4.8 17.7158ZM14.4 0H9.6C9.28174 0 8.97652 0.109793 8.75147 0.305225C8.52643 0.500658 8.4 0.765722 8.4 1.0421V19.8C8.4 20.0764 8.52643 20.3414 8.75147 20.5369C8.97652 20.7323 9.28174 20.8421 9.6 20.8421H14.4C14.7183 20.8421 15.0235 20.7323 15.2485 20.5369C15.4736 20.3414 15.6 20.0764 15.6 19.8V1.0421C15.6 0.765722 15.4736 0.500658 15.2485 0.305225C15.0235 0.109793 14.7183 0 14.4 0ZM12 19.8C11.5253 19.8 11.0613 19.6778 10.6666 19.4487C10.272 19.2197 9.96434 18.8942 9.78269 18.5134C9.60104 18.1325 9.55351 17.7135 9.64612 17.3092C9.73872 16.9049 9.9673 16.5335 10.3029 16.242C10.6386 15.9505 11.0662 15.752 11.5318 15.6716C11.9973 15.5912 12.4799 15.6325 12.9184 15.7902C13.357 15.948 13.7318 16.2151 13.9955 16.5579C14.2592 16.9006 14.4 17.3036 14.4 17.7158C14.4 18.2686 14.1471 18.7987 13.6971 19.1895C13.247 19.5804 12.6365 19.8 12 19.8ZM14.4 10.421H9.6V1.0421H14.4V10.421ZM13.2 17.7158C13.2 17.9219 13.1296 18.1234 12.9978 18.2947C12.8659 18.4661 12.6785 18.5997 12.4592 18.6786C12.2399 18.7574 11.9987 18.7781 11.7659 18.7379C11.5331 18.6977 11.3193 18.5984 11.1515 18.4527C10.9836 18.3069 10.8694 18.1212 10.8231 17.9191C10.7768 17.7169 10.8005 17.5074 10.8913 17.317C10.9822 17.1266 11.136 16.9638 11.3333 16.8493C11.5307 16.7348 11.7627 16.6737 12 16.6737C12.3183 16.6737 12.6235 16.7835 12.8485 16.9789C13.0736 17.1743 13.2 17.4394 13.2 17.7158ZM22.8 0H18C17.6817 0 17.3765 0.109793 17.1515 0.305225C16.9264 0.500658 16.8 0.765722 16.8 1.0421V19.8C16.8 20.0764 16.9264 20.3414 17.1515 20.5369C17.3765 20.7323 17.6817 20.8421 18 20.8421H22.8C23.1183 20.8421 23.4235 20.7323 23.6485 20.5369C23.8736 20.3414 24 20.0764 24 19.8V1.0421C24 0.765722 23.8736 0.500658 23.6485 0.305225C23.4235 0.109793 23.1183 0 22.8 0ZM20.4 19.8C19.9253 19.8 19.4613 19.6778 19.0666 19.4487C18.672 19.2197 18.3643 18.8942 18.1827 18.5134C18.001 18.1325 17.9535 17.7135 18.0461 17.3092C18.1387 16.9049 18.3673 16.5335 18.7029 16.242C19.0386 15.9505 19.4662 15.752 19.9318 15.6716C20.3973 15.5912 20.8799 15.6325 21.3184 15.7902C21.757 15.948 22.1318 16.2151 22.3955 16.5579C22.6592 16.9006 22.8 17.3036 22.8 17.7158C22.8 18.2686 22.5471 18.7987 22.0971 19.1895C21.647 19.5804 21.0365 19.8 20.4 19.8ZM22.8 10.421H18V1.0421H22.8V10.421ZM21.6 17.7158C21.6 17.9219 21.5296 18.1234 21.3978 18.2947C21.2659 18.4661 21.0785 18.5997 20.8592 18.6786C20.6399 18.7574 20.3987 18.7781 20.1659 18.7379C19.9331 18.6977 19.7193 18.5984 19.5515 18.4527C19.3836 18.3069 19.2694 18.1212 19.2231 17.9191C19.1768 17.7169 19.2005 17.5074 19.2913 17.317C19.3822 17.1266 19.536 16.9638 19.7333 16.8493C19.9307 16.7348 20.1627 16.6737 20.4 16.6737C20.7183 16.6737 21.0235 16.7835 21.2485 16.9789C21.4736 17.1743 21.6 17.4394 21.6 17.7158Z" fill="white" stroke="white" stroke-width="8" mask="url(#path-1-inside-1_1366_1522)"/>
</svg>
