<svg width="24" height="21" viewBox="0 0 24 21" fill="none" xmlns="http://www.w3.org/2000/svg">
<mask id="path-1-inside-1_1366_1697" fill="white">
<path d="M12.8571 6.69924H7.71429C7.0323 6.69924 6.37825 6.93451 5.89601 7.3533C5.41377 7.77208 5.14286 8.34008 5.14286 8.93233V11.9098H6.85714V8.93233C6.85714 8.73491 6.94745 8.54558 7.10819 8.40598C7.26894 8.26639 7.48696 8.18797 7.71429 8.18797H12.8571C13.0845 8.18797 13.3025 8.26639 13.4632 8.40598C13.624 8.54558 13.7143 8.73491 13.7143 8.93233V9.67669H15.4286V8.93233C15.4286 8.34008 15.1577 7.77208 14.6754 7.3533C14.1932 6.93451 13.5391 6.69924 12.8571 6.69924ZM6.85714 2.97744C6.85714 3.56632 7.05823 4.14198 7.43496 4.63162C7.8117 5.12126 8.34717 5.50288 8.97366 5.72824C9.60015 5.9536 10.2895 6.01256 10.9546 5.89767C11.6197 5.78279 12.2306 5.49921 12.7101 5.08281C13.1896 4.66641 13.5161 4.13588 13.6484 3.55831C13.7807 2.98074 13.7128 2.38208 13.4533 1.83802C13.1938 1.29397 12.7544 0.828955 12.1905 0.501789C11.6267 0.174624 10.9638 0 10.2857 0C9.3764 0 8.50433 0.313694 7.86135 0.872073C7.21837 1.43045 6.85714 2.18778 6.85714 2.97744ZM12 2.97744C12 3.27188 11.8995 3.55971 11.7111 3.80453C11.5227 4.04935 11.255 4.24016 10.9417 4.35284C10.6285 4.46552 10.2838 4.495 9.95127 4.43756C9.61874 4.38012 9.31328 4.23833 9.07353 4.03013C8.83378 3.82193 8.67051 3.55666 8.60437 3.26788C8.53822 2.97909 8.57217 2.67976 8.70192 2.40773C8.83167 2.1357 9.0514 1.9032 9.33331 1.73962C9.61522 1.57603 9.94666 1.48872 10.2857 1.48872C10.7404 1.48872 11.1764 1.64557 11.4979 1.92476C11.8194 2.20395 12 2.58261 12 2.97744ZM17.1429 18.609H12C11.5455 18.6086 11.1097 18.4516 10.7883 18.1725C10.4669 17.8934 10.2862 17.515 10.2857 17.1203V12.6541C10.2862 12.2594 10.4669 11.881 10.7883 11.6019C11.1097 11.3228 11.5455 11.1658 12 11.1654H17.1429C17.5974 11.1658 18.0331 11.3228 18.3545 11.6019C18.6759 11.881 18.8567 12.2594 18.8571 12.6541V17.1203C18.8567 17.515 18.6759 17.8934 18.3545 18.1725C18.0331 18.4516 17.5974 18.6086 17.1429 18.609ZM12 12.6541V17.1203H17.1429V12.6541H12ZM5.14286 20.8421H1.71429C1.25977 20.8417 0.823996 20.6847 0.502604 20.4056C0.181211 20.1265 0.000453837 19.7481 0 19.3534V1.48872C0.000453837 1.09401 0.181211 0.715575 0.502604 0.436472C0.823996 0.157368 1.25977 0.000394121 1.71429 0H5.14286V1.48872H1.71429V19.3534H5.14286V20.8421ZM22.2857 20.8421H18.8571V19.3534H22.2857V1.48872H18.8571V0H22.2857C22.7402 0.000394121 23.176 0.157368 23.4974 0.436472C23.8188 0.715575 23.9995 1.09401 24 1.48872V19.3534C23.9995 19.7481 23.8188 20.1265 23.4974 20.4056C23.176 20.6847 22.7402 20.8417 22.2857 20.8421Z"/>
</mask>
<path d="M12.8571 6.69924H7.71429C7.0323 6.69924 6.37825 6.93451 5.89601 7.3533C5.41377 7.77208 5.14286 8.34008 5.14286 8.93233V11.9098H6.85714V8.93233C6.85714 8.73491 6.94745 8.54558 7.10819 8.40598C7.26894 8.26639 7.48696 8.18797 7.71429 8.18797H12.8571C13.0845 8.18797 13.3025 8.26639 13.4632 8.40598C13.624 8.54558 13.7143 8.73491 13.7143 8.93233V9.67669H15.4286V8.93233C15.4286 8.34008 15.1577 7.77208 14.6754 7.3533C14.1932 6.93451 13.5391 6.69924 12.8571 6.69924ZM6.85714 2.97744C6.85714 3.56632 7.05823 4.14198 7.43496 4.63162C7.8117 5.12126 8.34717 5.50288 8.97366 5.72824C9.60015 5.9536 10.2895 6.01256 10.9546 5.89767C11.6197 5.78279 12.2306 5.49921 12.7101 5.08281C13.1896 4.66641 13.5161 4.13588 13.6484 3.55831C13.7807 2.98074 13.7128 2.38208 13.4533 1.83802C13.1938 1.29397 12.7544 0.828955 12.1905 0.501789C11.6267 0.174624 10.9638 0 10.2857 0C9.3764 0 8.50433 0.313694 7.86135 0.872073C7.21837 1.43045 6.85714 2.18778 6.85714 2.97744ZM12 2.97744C12 3.27188 11.8995 3.55971 11.7111 3.80453C11.5227 4.04935 11.255 4.24016 10.9417 4.35284C10.6285 4.46552 10.2838 4.495 9.95127 4.43756C9.61874 4.38012 9.31328 4.23833 9.07353 4.03013C8.83378 3.82193 8.67051 3.55666 8.60437 3.26788C8.53822 2.97909 8.57217 2.67976 8.70192 2.40773C8.83167 2.1357 9.0514 1.9032 9.33331 1.73962C9.61522 1.57603 9.94666 1.48872 10.2857 1.48872C10.7404 1.48872 11.1764 1.64557 11.4979 1.92476C11.8194 2.20395 12 2.58261 12 2.97744ZM17.1429 18.609H12C11.5455 18.6086 11.1097 18.4516 10.7883 18.1725C10.4669 17.8934 10.2862 17.515 10.2857 17.1203V12.6541C10.2862 12.2594 10.4669 11.881 10.7883 11.6019C11.1097 11.3228 11.5455 11.1658 12 11.1654H17.1429C17.5974 11.1658 18.0331 11.3228 18.3545 11.6019C18.6759 11.881 18.8567 12.2594 18.8571 12.6541V17.1203C18.8567 17.515 18.6759 17.8934 18.3545 18.1725C18.0331 18.4516 17.5974 18.6086 17.1429 18.609ZM12 12.6541V17.1203H17.1429V12.6541H12ZM5.14286 20.8421H1.71429C1.25977 20.8417 0.823996 20.6847 0.502604 20.4056C0.181211 20.1265 0.000453837 19.7481 0 19.3534V1.48872C0.000453837 1.09401 0.181211 0.715575 0.502604 0.436472C0.823996 0.157368 1.25977 0.000394121 1.71429 0H5.14286V1.48872H1.71429V19.3534H5.14286V20.8421ZM22.2857 20.8421H18.8571V19.3534H22.2857V1.48872H18.8571V0H22.2857C22.7402 0.000394121 23.176 0.157368 23.4974 0.436472C23.8188 0.715575 23.9995 1.09401 24 1.48872V19.3534C23.9995 19.7481 23.8188 20.1265 23.4974 20.4056C23.176 20.6847 22.7402 20.8417 22.2857 20.8421Z" fill="white"/>
<path d="M7.71429 6.69924V9.69924V6.69924ZM5.14286 11.9098H2.14286V14.9098H5.14286V11.9098ZM6.85714 11.9098V14.9098H9.85714V11.9098H6.85714ZM13.7143 9.67669H10.7143V12.6767H13.7143V9.67669ZM15.4286 9.67669V12.6767H18.4286V9.67669H15.4286ZM15.4286 8.93233H18.4286H15.4286ZM10.2857 0V-3V0ZM10.2857 1.48872V-1.51128V1.48872ZM12 18.609L11.9974 21.609H12V18.609ZM10.2857 17.1203H7.28571L7.28572 17.1237L10.2857 17.1203ZM10.2857 12.6541L7.28571 12.6507V12.6541H10.2857ZM12 11.1654V8.16541L11.9974 8.16541L12 11.1654ZM17.1429 11.1654L17.1455 8.16541H17.1429V11.1654ZM18.8571 12.6541L21.8571 12.6541L21.8571 12.6507L18.8571 12.6541ZM18.8571 17.1203L21.8571 17.1237V17.1203H18.8571ZM12 12.6541V9.65413H9V12.6541H12ZM12 17.1203H9V20.1203H12V17.1203ZM17.1429 17.1203V20.1203H20.1429V17.1203H17.1429ZM17.1429 12.6541H20.1429V9.65413H17.1429V12.6541ZM5.14286 20.8421V23.8421H8.14286V20.8421H5.14286ZM1.71429 20.8421L1.71168 23.8421H1.71429V20.8421ZM0 19.3534H-3L-3 19.3568L0 19.3534ZM0 1.48872L-3 1.48527V1.48872H0ZM1.71429 0V-3L1.71168 -3L1.71429 0ZM5.14286 0H8.14286V-3H5.14286V0ZM5.14286 1.48872V4.48872H8.14286V1.48872H5.14286ZM1.71429 1.48872V-1.51128H-1.28571V1.48872H1.71429ZM1.71429 19.3534H-1.28571V22.3534H1.71429V19.3534ZM5.14286 19.3534H8.14286V16.3534H5.14286V19.3534ZM22.2857 20.8421V23.8421L22.2883 23.8421L22.2857 20.8421ZM18.8571 20.8421H15.8571V23.8421H18.8571V20.8421ZM18.8571 19.3534V16.3534H15.8571V19.3534H18.8571ZM22.2857 19.3534V22.3534H25.2857V19.3534H22.2857ZM22.2857 1.48872H25.2857V-1.51128H22.2857V1.48872ZM18.8571 1.48872H15.8571V4.48872H18.8571V1.48872ZM18.8571 0V-3H15.8571V0H18.8571ZM22.2857 0L22.2883 -3H22.2857V0ZM24 1.48872H27L27 1.48527L24 1.48872ZM24 19.3534L27 19.3568V19.3534H24ZM12.8571 3.69924H7.71429V9.69924H12.8571V3.69924ZM7.71429 3.69924C6.36264 3.69924 4.99576 4.16176 3.92895 5.0882L7.86307 9.6184C7.80812 9.66611 7.76501 9.6852 7.74568 9.69215C7.72605 9.69921 7.71631 9.69924 7.71429 9.69924V3.69924ZM3.92895 5.0882C2.84877 6.02625 2.14286 7.39687 2.14286 8.93233H8.14286C8.14286 9.28328 7.97878 9.51792 7.86307 9.6184L3.92895 5.0882ZM2.14286 8.93233V11.9098H8.14286V8.93233H2.14286ZM5.14286 14.9098H6.85714V8.90977H5.14286V14.9098ZM9.85714 11.9098V8.93233H3.85714V11.9098H9.85714ZM9.85714 8.93233C9.85714 9.67812 9.51245 10.2914 9.07525 10.6711L5.14114 6.14088C4.38245 6.79974 3.85714 7.7917 3.85714 8.93233H9.85714ZM9.07525 10.6711C8.65142 11.0391 8.15662 11.188 7.71429 11.188V5.18796C6.81729 5.18796 5.88646 5.49363 5.14114 6.14088L9.07525 10.6711ZM7.71429 11.188H12.8571V5.18796H7.71429V11.188ZM12.8571 11.188C12.4148 11.188 11.92 11.0391 11.4962 10.6711L15.4303 6.14088C14.685 5.49363 13.7541 5.18796 12.8571 5.18796V11.188ZM11.4962 10.6711C11.059 10.2914 10.7143 9.67811 10.7143 8.93233H16.7143C16.7143 7.79171 16.189 6.79975 15.4303 6.14088L11.4962 10.6711ZM10.7143 8.93233V9.67669H16.7143V8.93233H10.7143ZM13.7143 12.6767H15.4286V6.67669H13.7143V12.6767ZM18.4286 9.67669V8.93233H12.4286V9.67669H18.4286ZM18.4286 8.93233C18.4286 7.39687 17.7227 6.02625 16.6425 5.0882L12.7084 9.6184C12.5927 9.51792 12.4286 9.28328 12.4286 8.93233H18.4286ZM16.6425 5.0882C15.5757 4.16176 14.2088 3.69924 12.8571 3.69924V9.69924C12.8551 9.69924 12.8454 9.69921 12.8257 9.69215C12.8064 9.6852 12.7633 9.66611 12.7084 9.6184L16.6425 5.0882ZM3.85714 2.97744C3.85714 4.26211 4.29828 5.47455 5.05731 6.46103L9.81262 2.80221C9.81383 2.80378 9.82555 2.81977 9.83696 2.85244C9.84853 2.88555 9.85714 2.92855 9.85714 2.97744H3.85714ZM5.05731 6.46103C5.8111 7.44073 6.83575 8.1474 7.95822 8.55116L9.98909 2.90532C9.85858 2.85837 9.81229 2.80178 9.81262 2.80221L5.05731 6.46103ZM7.95822 8.55116C9.08028 8.95478 10.2959 9.05589 11.4653 8.85389L10.4439 2.94145C10.2832 2.96923 10.12 2.95241 9.98909 2.90532L7.95822 8.55116ZM11.4653 8.85389C12.6345 8.65192 13.7581 8.14601 14.6771 7.34791L10.743 2.81771C10.7031 2.85242 10.6048 2.91366 10.4439 2.94145L11.4653 8.85389ZM14.6771 7.34791C15.6002 6.54633 16.288 5.471 16.5727 4.22812L10.7241 2.88851C10.7336 2.84722 10.7472 2.82055 10.7546 2.80849C10.7618 2.79681 10.7611 2.80199 10.743 2.81771L14.6771 7.34791ZM16.5727 4.22812C16.8588 2.97878 16.7064 1.68975 16.1611 0.546495L10.7455 3.12955C10.7344 3.10617 10.7222 3.07009 10.7169 3.02368C10.7116 2.97706 10.7146 2.93033 10.7241 2.88851L16.5727 4.22812ZM16.1611 0.546495C15.6199 -0.58802 14.7382 -1.48839 13.6962 -2.09301L10.6849 3.09659C10.7705 3.1463 10.7677 3.17596 10.7455 3.12955L16.1611 0.546495ZM13.6962 -2.09301C12.6561 -2.69652 11.4704 -3 10.2857 -3V3C10.4572 3 10.5973 3.04576 10.6849 3.09659L13.6962 -2.09301ZM10.2857 -3C8.70674 -3 7.12185 -2.45906 5.89429 -1.39303L9.82841 3.13717C9.88681 3.08645 10.0461 3 10.2857 3V-3ZM5.89429 -1.39303C4.65336 -0.315383 3.85714 1.24457 3.85714 2.97744H9.85714C9.85714 3.0446 9.841 3.09786 9.82589 3.12955C9.81141 3.15989 9.8042 3.1582 9.82841 3.13717L5.89429 -1.39303ZM9 2.97744C9 2.5761 9.13952 2.22715 9.33343 1.97512L14.0887 5.63394C14.6594 4.89228 15 3.96767 15 2.97744H9ZM9.33343 1.97512C9.52213 1.72987 9.74357 1.59565 9.92631 1.52992L11.9572 7.17576C12.7664 6.88468 13.5233 6.36883 14.0887 5.63394L9.33343 1.97512ZM9.92631 1.52992C10.1086 1.46433 10.2902 1.45167 10.4619 1.48134L9.44062 7.39378C10.2775 7.53833 11.1484 7.4667 11.9572 7.17576L9.92631 1.52992ZM10.4619 1.48134C10.6336 1.51099 10.8408 1.59153 11.0406 1.76503L7.10647 6.29523C7.78575 6.88512 8.60391 7.24924 9.44062 7.39378L10.4619 1.48134ZM11.0406 1.76503C11.2444 1.942 11.4424 2.22154 11.5286 2.59807L5.6801 3.93768C5.89863 4.89178 6.42319 5.70185 7.10647 6.29523L11.0406 1.76503ZM11.5286 2.59807C11.6164 2.98105 11.5657 3.3721 11.4097 3.69926L5.99416 1.1162C5.57861 1.98743 5.46008 2.97713 5.6801 3.93768L11.5286 2.59807ZM11.4097 3.69926C11.2578 4.01769 11.0352 4.22054 10.839 4.33442L7.82765 -0.855185C7.06757 -0.414144 6.40555 0.253715 5.99416 1.1162L11.4097 3.69926ZM10.839 4.33442C10.6446 4.44717 10.4533 4.48872 10.2857 4.48872V-1.51128C9.44004 -1.51128 8.58579 -1.29511 7.82765 -0.855185L10.839 4.33442ZM10.2857 4.48872C10.0707 4.48872 9.79392 4.41833 9.53084 4.18986L13.465 -0.340343C12.5589 -1.12719 11.41 -1.51128 10.2857 -1.51128V4.48872ZM9.53084 4.18986C9.25439 3.94978 9 3.52582 9 2.97744H15C15 1.6394 14.3844 0.458111 13.465 -0.340343L9.53084 4.18986ZM17.1429 15.609H12V21.609H17.1429V15.609ZM12.0026 15.609C12.2169 15.6092 12.4929 15.6795 12.7554 15.9074L8.82126 20.4376C9.7265 21.2238 10.874 21.608 11.9974 21.609L12.0026 15.609ZM12.7554 15.9074C13.0311 16.1469 13.2851 16.5697 13.2857 17.1168L7.28572 17.1237C7.28725 18.4603 7.90273 19.64 8.82126 20.4376L12.7554 15.9074ZM13.2857 17.1203V12.6541H7.28571V17.1203H13.2857ZM13.2857 12.6576C13.2851 13.2047 13.0311 13.6275 12.7554 13.867L8.82126 9.33678C7.90273 10.1344 7.28725 11.3141 7.28572 12.6507L13.2857 12.6576ZM12.7554 13.867C12.4929 14.0949 12.2169 14.1652 12.0026 14.1654L11.9974 8.16541C10.874 8.16638 9.7265 8.55065 8.82126 9.33678L12.7554 13.867ZM12 14.1654H17.1429V8.16541H12V14.1654ZM17.1403 14.1654C16.9259 14.1652 16.6499 14.0949 16.3875 13.867L20.3216 9.33678C19.4164 8.55065 18.2688 8.16638 17.1455 8.16541L17.1403 14.1654ZM16.3875 13.867C16.1117 13.6275 15.8578 13.2047 15.8571 12.6576L21.8571 12.6507C21.8556 11.3141 21.2401 10.1345 20.3216 9.33678L16.3875 13.867ZM15.8571 12.6541V17.1203H21.8571V12.6541H15.8571ZM15.8571 17.1168C15.8578 16.5697 16.1117 16.1469 16.3875 15.9074L20.3216 20.4376C21.2401 19.64 21.8556 18.4603 21.8571 17.1237L15.8571 17.1168ZM16.3875 15.9074C16.6499 15.6795 16.9259 15.6092 17.1403 15.609L17.1455 21.609C18.2688 21.608 19.4164 21.2238 20.3216 20.4376L16.3875 15.9074ZM9 12.6541V17.1203H15V12.6541H9ZM12 20.1203H17.1429V14.1203H12V20.1203ZM20.1429 17.1203V12.6541H14.1429V17.1203H20.1429ZM17.1429 9.65413H12V15.6541H17.1429V9.65413ZM5.14286 17.8421H1.71429V23.8421H5.14286V17.8421ZM1.71689 17.8421C1.93121 17.8423 2.20721 17.9126 2.46966 18.1405L-1.46446 22.6707C-0.559219 23.4568 0.588323 23.8411 1.71168 23.8421L1.71689 17.8421ZM2.46966 18.1405C2.74541 18.38 2.99937 18.8028 3 19.3499L-3 19.3568C-2.99846 20.6934 -2.38299 21.8731 -1.46446 22.6707L2.46966 18.1405ZM3 19.3534V1.48872H-3V19.3534H3ZM3 1.49217C2.99937 2.03933 2.74541 2.46211 2.46966 2.70157L-1.46446 -1.82863C-2.38299 -1.03096 -2.99846 0.148688 -3 1.48527L3 1.49217ZM2.46966 2.70157C2.20721 2.92949 1.93122 2.99981 1.71689 3L1.71168 -3C0.58832 -2.99902 -0.55922 -2.61475 -1.46446 -1.82863L2.46966 2.70157ZM1.71429 3H5.14286V-3H1.71429V3ZM2.14286 0V1.48872H8.14286V0H2.14286ZM5.14286 -1.51128H1.71429V4.48872H5.14286V-1.51128ZM-1.28571 1.48872V19.3534H4.71429V1.48872H-1.28571ZM1.71429 22.3534H5.14286V16.3534H1.71429V22.3534ZM2.14286 19.3534V20.8421H8.14286V19.3534H2.14286ZM22.2857 17.8421H18.8571V23.8421H22.2857V17.8421ZM21.8571 20.8421V19.3534H15.8571V20.8421H21.8571ZM18.8571 22.3534H22.2857V16.3534H18.8571V22.3534ZM25.2857 19.3534V1.48872H19.2857V19.3534H25.2857ZM22.2857 -1.51128H18.8571V4.48872H22.2857V-1.51128ZM21.8571 1.48872V0H15.8571V1.48872H21.8571ZM18.8571 3H22.2857V-3H18.8571V3ZM22.2831 3C22.0688 2.99981 21.7928 2.92949 21.5303 2.70157L25.4645 -1.82863C24.5592 -2.61475 23.4117 -2.99902 22.2883 -3L22.2831 3ZM21.5303 2.70157C21.2546 2.46211 21.0006 2.03933 21 1.49217L27 1.48527C26.9985 0.148691 26.383 -1.03096 25.4645 -1.82863L21.5303 2.70157ZM21 1.48872V19.3534H27V1.48872H21ZM21 19.3499C21.0006 18.8028 21.2546 18.38 21.5303 18.1405L25.4645 22.6707C26.383 21.873 26.9985 20.6934 27 19.3568L21 19.3499ZM21.5303 18.1405C21.7928 17.9126 22.0688 17.8423 22.2831 17.8421L22.2883 23.8421C23.4117 23.8411 24.5592 23.4568 25.4645 22.6707L21.5303 18.1405Z" fill="white" mask="url(#path-1-inside-1_1366_1697)"/>
</svg>
