<svg width="23" height="23" viewBox="0 0 23 23" fill="none" xmlns="http://www.w3.org/2000/svg">
<path d="M9.71391 1.25342C10.39 -0.313476 12.61 -0.313476 13.2861 1.25342C13.7508 2.33066 15.0551 2.75477 16.0638 2.15668C17.531 1.28674 19.3269 2.59269 18.9536 4.25803C18.697 5.40296 19.5031 6.51328 20.6703 6.62279C22.3682 6.78211 23.0541 8.89511 21.7741 10.0228C20.8941 10.7981 20.8941 12.1706 21.7741 12.9459C23.0541 14.0736 22.3682 16.1867 20.6703 16.3459C19.5031 16.4555 18.697 17.5658 18.9536 18.7108C19.3269 20.3761 17.531 21.682 16.0638 20.8121C15.0551 20.2141 13.7508 20.638 13.2861 21.7154C12.61 23.2822 10.39 23.2822 9.71391 21.7154C9.24916 20.638 7.94499 20.2141 6.9363 20.8121C5.46912 21.682 3.67313 20.3761 4.04642 18.7108C4.30305 17.5658 3.49703 16.4555 2.32973 16.3459C0.631847 16.1867 -0.0541533 14.0736 1.2259 12.9459C2.10593 12.1706 2.10593 10.7981 1.2259 10.0228C-0.0541533 8.89511 0.631847 6.78211 2.32973 6.62279C3.49703 6.51328 4.30305 5.40296 4.04642 4.25803C3.67313 2.59269 5.46912 1.28674 6.9363 2.15668C7.94499 2.75477 9.24916 2.33066 9.71391 1.25342Z" fill="white"/>
<path d="M14.6414 8.7153C14.427 8.72151 14.2237 8.81014 14.0742 8.96243C12.7692 10.26 11.5776 11.5323 10.3242 12.8019L8.85091 11.6301C8.76627 11.5629 8.66913 11.513 8.56505 11.483C8.46097 11.4532 8.35198 11.4438 8.24426 11.4557C8.13656 11.4675 8.03227 11.5004 7.93733 11.5522C7.84242 11.6041 7.75872 11.6739 7.69101 11.7579C7.62332 11.8418 7.57294 11.9382 7.5428 12.0415C7.51264 12.1447 7.50327 12.2529 7.51524 12.3597C7.52723 12.4666 7.56029 12.5701 7.61256 12.6642C7.66485 12.7583 7.73532 12.8413 7.81995 12.9085L9.8818 14.5448C10.0408 14.6705 10.2411 14.7336 10.444 14.7217C10.6469 14.7099 10.8384 14.6242 10.9815 14.4809C12.4646 13.0064 13.7934 11.5581 15.2428 10.1174C15.3611 10.0021 15.4417 9.85417 15.474 9.69277C15.5063 9.5315 15.4888 9.36416 15.4238 9.2128C15.3591 9.06143 15.2496 8.93304 15.11 8.84429C14.9703 8.75553 14.807 8.71059 14.6414 8.7153Z" fill="#272628"/>
</svg>
